<svg width="331" height="190" viewBox="0 0 331 190" fill="none" xmlns="http://www.w3.org/2000/svg">
<path d="M87.6616 82.4291C88.5589 78.246 88.8664 74.1175 87.2187 70.2474C82.0864 58.2007 66.0828 60.2162 56.8707 65.3294C50.3756 68.9354 44.7664 74.4994 40.6245 80.7007C36.3697 87.0715 33.2688 94.3552 27.1011 99.1642C26.3251 99.7699 25.4279 100.315 24.4517 100.295C22.9958 100.264 21.822 98.9258 21.4637 97.4875C21.1054 96.0491 21.3791 94.539 21.6669 93.0862C27.6541 62.9293 40.2238 34.1475 58.208 9.41384C59.3056 7.90369 60.454 6.34187 60.8208 4.49869C62.1751 -2.30271 53.7755 0.530965 50.5166 2.02676C45.6919 4.2403 41.564 8.03576 37.8961 11.8427C20.6088 29.7893 11.7408 54.2904 4.64196 78.3609C1.91922 87.594 -0.639881 97.2664 0.979657 106.767C2.59637 116.267 9.60779 125.508 19.0429 126.401C27.6964 127.222 35.574 121.007 40.6725 113.844C45.7709 106.68 49.1144 98.3 54.6219 91.4584C55.2511 90.6746 55.9762 89.8707 56.944 89.6382C58.4168 89.285 59.9066 90.4449 60.5076 91.8603C61.1085 93.2757 61.0493 94.872 61.0295 96.4137C60.9477 103.212 61.8816 110.131 64.6975 116.295C69.0793 125.885 78.1137 133.128 88.2993 135.221C89.8455 135.54 91.6343 135.686 92.8278 134.635C95.0737 132.663 93.1805 129.023 91.4763 126.551C84.8994 117.019 82.456 104.642 84.9022 93.2642C85.6697 89.6985 86.8829 86.0437 87.6588 82.4262L87.6616 82.4291Z" fill="#94D42A"/>
<path d="M128.157 84.4876V50.3591C128.157 49.5358 128.829 48.8679 129.658 48.8679H138.877C139.706 48.8679 140.378 49.5358 140.378 50.3591V60.3928C140.378 61.2161 141.05 61.884 141.878 61.884H149.201C150.029 61.884 150.701 61.2161 150.701 60.3928V50.3591C150.701 49.5358 151.373 48.8679 152.202 48.8679H161.421C162.25 48.8679 162.922 49.5358 162.922 50.3591V84.4876C162.922 85.311 162.25 85.9788 161.421 85.9788H152.202C151.373 85.9788 150.701 85.311 150.701 84.4876V74.9297C150.701 74.1064 150.029 73.4385 149.201 73.4385H141.878C141.05 73.4385 140.378 74.1064 140.378 74.9297V84.4876C140.378 85.311 139.706 85.9788 138.877 85.9788H129.658C128.829 85.9788 128.157 85.311 128.157 84.4876Z" fill="white"/>
<path d="M201.735 85.9784H192.797V83.9543C190.505 85.8091 187.451 86.7377 183.631 86.7377C178.453 86.7377 174.126 84.8828 170.476 81.1708C166.911 77.4588 165.13 72.9898 165.13 67.8437C165.13 62.6977 166.996 58.0594 170.646 54.4343C174.381 50.7223 178.878 48.8674 184.139 48.8674C189.4 48.8674 193.984 50.7223 197.634 54.4343C201.37 58.0617 203.236 62.5307 203.236 67.8437V84.4872C203.236 85.3105 202.564 85.9784 201.735 85.9784ZM184.139 59.3265C179.472 59.3265 175.652 63.1208 175.652 67.846C175.652 72.5712 179.47 76.2809 184.139 76.2809C188.809 76.2809 192.627 72.4866 192.627 67.846C192.627 63.2054 188.892 59.3265 184.139 59.3265Z" fill="white"/>
<path d="M238.626 64.8933V84.4872C238.626 85.3105 237.954 85.9784 237.126 85.9784H229.264C228.436 85.9784 227.764 85.3105 227.764 84.4872V64.8933C227.764 60.9297 226.15 58.9056 222.841 58.9056C219.532 58.9056 217.833 61.1836 217.833 64.8933V84.4872C217.833 85.3105 217.161 85.9784 216.333 85.9784H208.471C207.643 85.9784 206.971 85.3105 206.971 84.4872V64.8933C206.971 59.8319 208.499 55.8683 211.553 53.0849C214.609 50.3015 218.342 48.8674 222.841 48.8674C227 48.8674 230.394 50.0476 233.195 52.4102C235.996 50.0476 239.475 48.8674 243.634 48.8674C248.131 48.8674 251.866 50.3015 254.837 53.0849C257.893 55.8683 259.419 59.8319 259.419 64.8933V84.4872C259.419 85.3105 258.747 85.9784 257.918 85.9784H250.057C249.228 85.9784 248.556 85.3105 248.556 84.4872V64.8933C248.556 60.9297 246.943 58.9056 243.634 58.9056C240.324 58.9056 238.626 61.099 238.626 64.8933Z" fill="white"/>
<path d="M264.481 49.6257H284.806C288.408 49.6257 291.43 52.4915 291.411 56.0708C291.402 57.7427 290.808 59.2499 289.63 60.6748L278.459 73.4735C277.617 74.4387 278.307 75.9414 279.591 75.9414H289.57C290.399 75.9414 291.071 76.6092 291.071 77.4326V84.4884C291.071 85.3117 290.399 85.9796 289.57 85.9796H268.241C264.423 85.9796 261.705 83.1961 261.705 79.4018C261.705 77.8831 262.299 76.3645 263.571 74.9305L274.673 62.1294C275.511 61.1619 274.821 59.6639 273.536 59.6639H264.476C263.647 59.6639 262.975 58.996 262.975 58.1727V51.1169C262.975 50.2935 263.647 49.6257 264.476 49.6257H264.481Z" fill="white"/>
<path d="M328.443 85.9784H319.505V83.9543C317.213 85.8091 314.159 86.7377 310.339 86.7377C305.161 86.7377 300.834 84.8828 297.184 81.1708C293.619 77.4588 291.838 72.9898 291.838 67.8437C291.838 62.6977 293.704 58.0594 297.354 54.4343C301.089 50.7223 305.586 48.8674 310.847 48.8674C316.108 48.8674 320.692 50.7223 324.342 54.4343C328.078 58.0617 329.944 62.5307 329.944 67.8437V84.4872C329.944 85.3105 329.272 85.9784 328.443 85.9784ZM310.847 59.3265C306.18 59.3265 302.36 63.1208 302.36 67.846C302.36 72.5712 306.178 76.2809 310.847 76.2809C315.517 76.2809 319.335 72.4866 319.335 67.846C319.335 63.2054 315.6 59.3265 310.847 59.3265Z" fill="white"/>
<path d="M2.94013 181.502V157.65H10.9996C12.8708 157.65 14.4004 157.987 15.5884 158.663C16.7841 159.331 17.6693 160.235 18.2438 161.377C18.8184 162.518 19.1057 163.791 19.1057 165.197C19.1057 166.602 18.8184 167.879 18.2438 169.028C17.677 170.177 16.7996 171.094 15.6117 171.777C14.4237 172.452 12.9019 172.79 11.0462 172.79H5.26946V170.228H10.953C12.2342 170.228 13.2629 170.007 14.0394 169.564C14.8158 169.122 15.3787 168.524 15.7281 167.771C16.0853 167.01 16.2639 166.152 16.2639 165.197C16.2639 164.242 16.0853 163.387 15.7281 162.634C15.3787 161.881 14.8119 161.291 14.0277 160.864C13.2435 160.429 12.2031 160.212 10.9064 160.212H5.8285V181.502H2.94013ZM30.4612 181.875C28.8462 181.875 27.4291 181.49 26.2101 180.722C24.9989 179.953 24.0516 178.878 23.3683 177.495C22.6928 176.113 22.3551 174.498 22.3551 172.65C22.3551 170.787 22.6928 169.16 23.3683 167.771C24.0516 166.381 24.9989 165.301 26.2101 164.533C27.4291 163.764 28.8462 163.38 30.4612 163.38C32.0762 163.38 33.4893 163.764 34.7005 164.533C35.9196 165.301 36.8668 166.381 37.5423 167.771C38.2256 169.16 38.5672 170.787 38.5672 172.65C38.5672 174.498 38.2256 176.113 37.5423 177.495C36.8668 178.878 35.9196 179.953 34.7005 180.722C33.4893 181.49 32.0762 181.875 30.4612 181.875ZM30.4612 179.406C31.6879 179.406 32.6973 179.091 33.4893 178.462C34.2813 177.833 34.8675 177.006 35.2479 175.981C35.6284 174.956 35.8186 173.846 35.8186 172.65C35.8186 171.455 35.6284 170.341 35.2479 169.308C34.8675 168.275 34.2813 167.441 33.4893 166.804C32.6973 166.167 31.6879 165.849 30.4612 165.849C29.2344 165.849 28.225 166.167 27.433 166.804C26.6411 167.441 26.0548 168.275 25.6744 169.308C25.2939 170.341 25.1037 171.455 25.1037 172.65C25.1037 173.846 25.2939 174.956 25.6744 175.981C26.0548 177.006 26.6411 177.833 27.433 178.462C28.225 179.091 29.2344 179.406 30.4612 179.406ZM46.2074 181.502L40.7568 163.613H43.6452L47.5119 177.309H47.6982L51.5183 163.613H54.4533L58.2268 177.263H58.4131L62.2798 163.613H65.1682L59.7175 181.502H57.0155L53.1022 167.759H52.8227L48.9095 181.502H46.2074ZM75.6938 181.875C73.9701 181.875 72.4832 181.494 71.2332 180.733C69.9909 179.965 69.0319 178.893 68.3564 177.519C67.6887 176.137 67.3548 174.529 67.3548 172.697C67.3548 170.865 67.6887 169.25 68.3564 167.852C69.0319 166.447 69.9714 165.352 71.1749 164.568C72.3862 163.776 73.7993 163.38 75.4143 163.38C76.346 163.38 77.2661 163.535 78.1746 163.846C79.083 164.156 79.9099 164.661 80.6553 165.36C81.4007 166.051 81.9947 166.967 82.4372 168.108C82.8798 169.25 83.1011 170.655 83.1011 172.324V173.489H69.3115V171.113H80.3059C80.3059 170.104 80.104 169.203 79.7003 168.411C79.3043 167.619 78.7375 166.994 77.9999 166.536C77.27 166.078 76.4082 165.849 75.4143 165.849C74.3195 165.849 73.3723 166.121 72.5725 166.664C71.7806 167.2 71.171 167.899 70.744 168.76C70.317 169.622 70.1034 170.546 70.1034 171.532V173.116C70.1034 174.467 70.3364 175.613 70.8022 176.552C71.2759 177.484 71.932 178.194 72.7705 178.683C73.6091 179.165 74.5835 179.406 75.6938 179.406C76.4159 179.406 77.0681 179.305 77.6505 179.103C78.2406 178.893 78.7491 178.582 79.1762 178.171C79.6032 177.752 79.9332 177.231 80.1661 176.61L82.8216 177.356C82.5421 178.256 82.0723 179.048 81.4123 179.732C80.7524 180.407 79.9371 180.935 78.9665 181.316C77.996 181.688 76.9051 181.875 75.6938 181.875ZM87.2822 181.502V163.613H89.9377V166.315H90.124C90.4501 165.43 91.0402 164.711 91.8943 164.16C92.7484 163.609 93.7112 163.333 94.7827 163.333C94.9846 163.333 95.2369 163.337 95.5397 163.345C95.8425 163.353 96.0716 163.364 96.2269 163.38V166.175C96.1337 166.152 95.9202 166.117 95.5863 166.07C95.2602 166.016 94.9147 165.989 94.5498 165.989C93.6801 165.989 92.9037 166.171 92.2204 166.536C91.5449 166.893 91.0092 167.39 90.6132 168.027C90.225 168.656 90.0309 169.374 90.0309 170.181V181.502H87.2822ZM106.441 181.875C104.717 181.875 103.23 181.494 101.98 180.733C100.738 179.965 99.7791 178.893 99.1036 177.519C98.4359 176.137 98.102 174.529 98.102 172.697C98.102 170.865 98.4359 169.25 99.1036 167.852C99.7791 166.447 100.719 165.352 101.922 164.568C103.133 163.776 104.546 163.38 106.161 163.38C107.093 163.38 108.013 163.535 108.922 163.846C109.83 164.156 110.657 164.661 111.402 165.36C112.148 166.051 112.742 166.967 113.184 168.108C113.627 169.25 113.848 170.655 113.848 172.324V173.489H100.059V171.113H111.053C111.053 170.104 110.851 169.203 110.447 168.411C110.051 167.619 109.485 166.994 108.747 166.536C108.017 166.078 107.155 165.849 106.161 165.849C105.067 165.849 104.119 166.121 103.32 166.664C102.528 167.2 101.918 167.899 101.491 168.76C101.064 169.622 100.851 170.546 100.851 171.532V173.116C100.851 174.467 101.084 175.613 101.549 176.552C102.023 177.484 102.679 178.194 103.518 178.683C104.356 179.165 105.331 179.406 106.441 179.406C107.163 179.406 107.815 179.305 108.398 179.103C108.988 178.893 109.496 178.582 109.923 178.171C110.35 177.752 110.68 177.231 110.913 176.61L113.569 177.356C113.289 178.256 112.819 179.048 112.159 179.732C111.5 180.407 110.684 180.935 109.714 181.316C108.743 181.688 107.652 181.875 106.441 181.875ZM124.784 181.875C123.294 181.875 121.978 181.498 120.836 180.745C119.695 179.984 118.802 178.912 118.158 177.53C117.513 176.141 117.191 174.498 117.191 172.604C117.191 170.725 117.513 169.094 118.158 167.712C118.802 166.33 119.699 165.263 120.848 164.509C121.997 163.756 123.325 163.38 124.831 163.38C125.996 163.38 126.916 163.574 127.591 163.962C128.275 164.343 128.795 164.777 129.152 165.266C129.517 165.748 129.8 166.144 130.002 166.454H130.235V157.65H132.984V181.502H130.328V178.753H130.002C129.8 179.079 129.513 179.491 129.14 179.988C128.768 180.477 128.236 180.916 127.545 181.304C126.854 181.684 125.934 181.875 124.784 181.875ZM125.157 179.406C126.26 179.406 127.191 179.118 127.952 178.544C128.713 177.961 129.292 177.158 129.688 176.133C130.084 175.1 130.282 173.908 130.282 172.557C130.282 171.222 130.088 170.053 129.699 169.052C129.311 168.042 128.737 167.258 127.976 166.699C127.215 166.132 126.275 165.849 125.157 165.849C123.992 165.849 123.022 166.148 122.245 166.746C121.477 167.336 120.898 168.139 120.51 169.156C120.13 170.166 119.939 171.299 119.939 172.557C119.939 173.831 120.134 174.988 120.522 176.028C120.918 177.061 121.5 177.884 122.269 178.497C123.045 179.103 124.008 179.406 125.157 179.406ZM147.996 181.502V157.65H150.745V166.454H150.978C151.18 166.144 151.459 165.748 151.816 165.266C152.181 164.777 152.701 164.343 153.377 163.962C154.06 163.574 154.984 163.38 156.149 163.38C157.655 163.38 158.983 163.756 160.132 164.509C161.281 165.263 162.178 166.33 162.822 167.712C163.467 169.094 163.789 170.725 163.789 172.604C163.789 174.498 163.467 176.141 162.822 177.53C162.178 178.912 161.285 179.984 160.144 180.745C159.002 181.498 157.686 181.875 156.195 181.875C155.046 181.875 154.126 181.684 153.435 181.304C152.744 180.916 152.212 180.477 151.84 179.988C151.467 179.491 151.18 179.079 150.978 178.753H150.652V181.502H147.996ZM150.698 172.557C150.698 173.908 150.896 175.1 151.292 176.133C151.688 177.158 152.267 177.961 153.028 178.544C153.788 179.118 154.72 179.406 155.823 179.406C156.972 179.406 157.931 179.103 158.7 178.497C159.476 177.884 160.058 177.061 160.447 176.028C160.842 174.988 161.04 173.831 161.04 172.557C161.04 171.299 160.846 170.166 160.458 169.156C160.078 168.139 159.499 167.336 158.723 166.746C157.954 166.148 156.987 165.849 155.823 165.849C154.705 165.849 153.765 166.132 153.004 166.699C152.243 167.258 151.669 168.042 151.281 169.052C150.892 170.053 150.698 171.222 150.698 172.557ZM169.123 188.21C168.657 188.21 168.242 188.172 167.877 188.094C167.512 188.024 167.26 187.954 167.12 187.884L167.819 185.462C168.487 185.633 169.077 185.695 169.589 185.648C170.102 185.602 170.556 185.372 170.952 184.961C171.356 184.557 171.724 183.901 172.058 182.993L172.571 181.595L165.955 163.613H168.937L173.875 177.868H174.061L179 163.613H181.981L174.388 184.111C174.046 185.035 173.623 185.8 173.118 186.405C172.613 187.019 172.027 187.473 171.359 187.768C170.699 188.063 169.954 188.21 169.123 188.21ZM187.612 181.688C187.038 181.688 186.545 181.483 186.133 181.071C185.722 180.659 185.516 180.166 185.516 179.592C185.516 179.017 185.722 178.524 186.133 178.113C186.545 177.701 187.038 177.495 187.612 177.495C188.187 177.495 188.68 177.701 189.091 178.113C189.503 178.524 189.709 179.017 189.709 179.592C189.709 179.972 189.612 180.322 189.418 180.64C189.231 180.958 188.979 181.215 188.66 181.409C188.35 181.595 188.001 181.688 187.612 181.688ZM187.612 168.411C187.038 168.411 186.545 168.205 186.133 167.794C185.722 167.382 185.516 166.889 185.516 166.315C185.516 165.74 185.722 165.247 186.133 164.836C186.545 164.424 187.038 164.218 187.612 164.218C188.187 164.218 188.68 164.424 189.091 164.836C189.503 165.247 189.709 165.74 189.709 166.315C189.709 166.695 189.612 167.045 189.418 167.363C189.231 167.681 188.979 167.937 188.66 168.132C188.35 168.318 188.001 168.411 187.612 168.411Z" fill="white"/>
<path d="M243.377 162.376L240.826 157.85L245.768 157.852C245.899 157.852 246.053 157.939 246.126 158.058C246.204 158.187 246.605 158.848 247.087 159.641C247.664 160.59 248.354 161.727 248.749 162.375H243.375L243.377 162.376ZM234.238 189.785C234.117 190 233.962 190 233.912 190H231.893C230.824 189.999 229.591 189.999 228.857 189.999L236.71 175.92C236.84 175.685 236.837 175.401 236.701 175.17C236.565 174.938 236.319 174.797 236.051 174.797H236.051L222.669 174.814L220.008 170.213H239.499C239.499 170.213 239.502 170.212 239.504 170.212C239.506 170.212 239.507 170.213 239.51 170.213C239.52 170.213 239.531 170.209 239.541 170.209C239.585 170.206 239.629 170.201 239.671 170.191C239.704 170.184 239.734 170.174 239.765 170.162C239.782 170.155 239.799 170.148 239.814 170.141C239.959 170.077 240.089 169.969 240.171 169.818L243.384 163.886H248.688L234.236 189.786L234.238 189.785ZM227.55 189.25C227.379 188.97 227.157 188.605 226.916 188.208C226.104 186.87 225.064 185.156 224.946 184.969C224.907 184.906 224.889 184.751 224.972 184.603C225.159 184.265 228.713 177.872 229.579 176.314L234.768 176.307L227.55 189.25ZM218.701 180.44L216.122 175.863L218.721 170.996L221.329 175.505C220.519 177.029 219.254 179.405 218.701 180.44ZM215.239 181.152C213.926 181.152 212.621 181.151 212.429 181.151H212.428C212.301 181.151 212.145 181.062 212.074 180.947L211.235 179.564C210.636 178.579 209.874 177.322 209.45 176.627H214.824L217.374 181.153C216.817 181.153 216.029 181.152 215.24 181.152H215.239ZM223.963 149.219C224.083 149.004 224.237 149.004 224.287 149.004H229.363L221.49 163.084C221.484 163.095 221.48 163.108 221.474 163.12C221.463 163.144 221.453 163.167 221.443 163.193C221.434 163.217 221.428 163.24 221.421 163.265C221.414 163.287 221.41 163.309 221.406 163.332C221.402 163.36 221.399 163.388 221.399 163.416C221.398 163.428 221.395 163.44 221.395 163.454C221.395 163.463 221.397 163.471 221.398 163.481C221.399 163.509 221.402 163.535 221.406 163.562C221.409 163.586 221.412 163.609 221.419 163.63C221.425 163.654 221.432 163.677 221.44 163.7C221.448 163.724 221.456 163.747 221.466 163.768C221.476 163.791 221.489 163.811 221.5 163.832C221.513 163.853 221.525 163.873 221.54 163.893C221.553 163.913 221.57 163.931 221.587 163.95C221.602 163.968 221.618 163.986 221.636 164.003C221.653 164.019 221.672 164.033 221.691 164.047C221.711 164.064 221.733 164.08 221.755 164.093C221.764 164.099 221.771 164.106 221.779 164.11C221.788 164.116 221.798 164.117 221.806 164.121C221.846 164.141 221.887 164.158 221.929 164.171C221.945 164.176 221.959 164.181 221.975 164.184C222.03 164.198 222.086 164.207 222.145 164.207H222.486L235.531 164.19C235.876 164.789 236.522 165.916 237.071 166.877C237.492 167.615 237.841 168.224 238.116 168.702H218.703C218.693 168.702 218.686 168.706 218.678 168.706C218.414 168.711 218.16 168.85 218.025 169.1L214.811 175.116H209.511C211.825 170.97 223.808 149.495 223.963 149.219ZM230.66 149.771L231.132 150.546C231.96 151.91 233.128 153.835 233.253 154.035C233.292 154.098 233.31 154.252 233.227 154.401L228.619 162.69L223.433 162.697L230.66 149.771ZM239.496 158.559L242.077 163.138L239.447 167.995C239.133 167.449 238.743 166.767 238.377 166.127C237.656 164.864 237.129 163.943 236.831 163.428C237.393 162.403 238.876 159.691 239.496 158.559Z" fill="white"/>
<path d="M279.03 165.103H276.142C275.971 164.273 275.672 163.543 275.245 162.914C274.826 162.285 274.313 161.757 273.708 161.33C273.11 160.895 272.446 160.569 271.716 160.352C270.986 160.134 270.225 160.025 269.433 160.025C267.989 160.025 266.681 160.39 265.509 161.12C264.344 161.85 263.416 162.926 262.725 164.346C262.042 165.767 261.7 167.51 261.7 169.576C261.7 171.641 262.042 173.384 262.725 174.805C263.416 176.226 264.344 177.301 265.509 178.031C266.681 178.761 267.989 179.126 269.433 179.126C270.225 179.126 270.986 179.017 271.716 178.8C272.446 178.582 273.11 178.26 273.708 177.833C274.313 177.398 274.826 176.867 275.245 176.238C275.672 175.601 275.971 174.871 276.142 174.048H279.03C278.813 175.267 278.417 176.358 277.842 177.321C277.268 178.284 276.553 179.103 275.699 179.778C274.845 180.446 273.886 180.955 272.823 181.304C271.767 181.653 270.637 181.828 269.433 181.828C267.399 181.828 265.59 181.331 264.006 180.337C262.422 179.343 261.176 177.93 260.268 176.098C259.359 174.265 258.905 172.091 258.905 169.576C258.905 167.06 259.359 164.886 260.268 163.054C261.176 161.221 262.422 159.808 264.006 158.814C265.59 157.82 267.399 157.323 269.433 157.323C270.637 157.323 271.767 157.498 272.823 157.848C273.886 158.197 274.845 158.709 275.699 159.385C276.553 160.053 277.268 160.868 277.842 161.831C278.417 162.786 278.813 163.877 279.03 165.103ZM286.074 170.74V181.502H283.325V157.65H286.074V166.408H286.307C286.726 165.484 287.355 164.75 288.193 164.207C289.04 163.655 290.165 163.38 291.571 163.38C292.79 163.38 293.857 163.624 294.774 164.113C295.69 164.595 296.4 165.336 296.905 166.338C297.417 167.332 297.674 168.597 297.674 170.135V181.502H294.925V170.321C294.925 168.9 294.556 167.802 293.819 167.025C293.089 166.241 292.076 165.849 290.779 165.849C289.878 165.849 289.071 166.039 288.356 166.42C287.65 166.8 287.091 167.355 286.679 168.085C286.275 168.815 286.074 169.7 286.074 170.74ZM307.966 181.921C306.833 181.921 305.804 181.708 304.88 181.281C303.956 180.846 303.222 180.221 302.679 179.406C302.135 178.582 301.864 177.589 301.864 176.424C301.864 175.399 302.065 174.568 302.469 173.932C302.873 173.287 303.413 172.782 304.088 172.418C304.764 172.053 305.509 171.781 306.324 171.602C307.147 171.416 307.974 171.268 308.805 171.16C309.892 171.02 310.773 170.915 311.449 170.845C312.132 170.768 312.629 170.639 312.94 170.461C313.258 170.282 313.417 169.972 313.417 169.529V169.436C313.417 168.287 313.103 167.394 312.474 166.757C311.852 166.121 310.909 165.802 309.644 165.802C308.331 165.802 307.303 166.09 306.557 166.664C305.812 167.239 305.288 167.852 304.985 168.504L302.376 167.573C302.842 166.486 303.463 165.639 304.239 165.034C305.024 164.42 305.878 163.993 306.802 163.752C307.733 163.504 308.65 163.38 309.55 163.38C310.125 163.38 310.785 163.45 311.53 163.589C312.283 163.721 313.009 163.997 313.708 164.416C314.415 164.836 315.001 165.468 315.467 166.315C315.933 167.161 316.166 168.295 316.166 169.716V181.502H313.417V179.079H313.277C313.091 179.468 312.78 179.883 312.346 180.326C311.911 180.768 311.332 181.145 310.61 181.455C309.888 181.766 309.007 181.921 307.966 181.921ZM308.386 179.452C309.473 179.452 310.389 179.239 311.134 178.812C311.887 178.384 312.454 177.833 312.835 177.158C313.223 176.482 313.417 175.772 313.417 175.026V172.511C313.301 172.65 313.044 172.779 312.648 172.895C312.26 173.004 311.81 173.101 311.297 173.186C310.793 173.264 310.3 173.334 309.818 173.396C309.345 173.45 308.96 173.497 308.665 173.536C307.951 173.629 307.283 173.78 306.662 173.99C306.049 174.192 305.552 174.498 305.171 174.91C304.798 175.314 304.612 175.865 304.612 176.564C304.612 177.519 304.965 178.241 305.672 178.73C306.386 179.211 307.291 179.452 308.386 179.452ZM328.962 163.613V165.942H319.692V163.613H328.962ZM322.394 159.327H325.142V176.377C325.142 177.154 325.255 177.736 325.48 178.124C325.713 178.505 326.008 178.761 326.365 178.893C326.73 179.017 327.114 179.079 327.518 179.079C327.821 179.079 328.069 179.064 328.264 179.033C328.458 178.994 328.613 178.963 328.729 178.94L329.288 181.409C329.102 181.479 328.842 181.549 328.508 181.618C328.174 181.696 327.751 181.735 327.239 181.735C326.462 181.735 325.701 181.568 324.956 181.234C324.218 180.9 323.605 180.392 323.116 179.708C322.634 179.025 322.394 178.163 322.394 177.123V159.327Z" fill="white"/>
</svg>
